#!OML:ASF F:\VICON\USERDATA\INSTALL\rory3\rory3.ASF
:FULLY-SPECIFIED
:DEGREES
74
root 0.3244755226917463 17.74788390886227 38.160649476785636 -3.1965379834341054 -0.5980549914931327 0.6759275383692938
lfemur -2.1953771123982557 -6.312478698340209 -20.343470826199205
ltibia 17.58055940985065
lfoot -11.286401231096995 3.061332024997075
ltoes -11.127435831679946
rfemur -29.417660425974272 -1.937868953965868 21.524538244093502
rtibia 51.556492222112155
rfoot -1.444963641019986 -4.582868213295596
rtoes 4.586075481133859
lowerback 1.0 -0.9628252273201066 -3.515968808272304
upperback 0.8291931544257418 -0.7365274462874858 1.1370950248435072
thorax -4.836965359812153 -0.243664907978498 3.591055503972208
lowerneck -15.782953325076583 -2.5437807389632363 -2.5885186419200616
upperneck 22.201603700357865 -3.516475150618695 0.3974033096248131
head 9.721859394684403 -1.7723968897867788 -0.06841714925420447
lclavicle -7.403788412118704e-15 1.2052403828209727e-14
lhumerus -25.952774709533962 0.44338305347846596 81.33737118561477
lradius 19.718302155878405
lwrist 3.006453444633962
lhand -27.202760026337373 24.08939107679429
lfingers nan
lthumb -0.3520254614652025 54.17330880896802
rclavicle -8.462190183112518e-15 1.2213380241414834e-14
rhumerus -33.84601348505454 -28.310151852031314 -72.48856558922837
rradius 19.899343815378202
rwrist 14.958335294439275
rhand -19.678162199162905 1.0
rfingers nan
rthumb 6.353307186533594 -7.3724394897331145
75
root 0.27637951941700606 17.719907267104634 39.08802659682438 -2.706169636456387 -0.6966184952684613 0.3216983587228355
lfemur 0.42147982741769674 -5.8742819484427935 -20.012102240699072
ltibia 14.591114567375861
lfoot -11.447790949523121 3.37166075531736
ltoes -12.700522019945089
rfemur -28.964035272304596 0.8031147020420732 21.16551344985594
rtibia 39.173501055719875
rfoot -1.3058712544215396 -5.545688315698322
rtoes 3.057031275753184
lowerback 1.0 -1.1121673792535471 -3.507446092511949
upperback 0.8477028173451029 -0.8465482399717159 1.3756044511635108
thorax -4.495921773003675 -0.3453668104709882 3.7787349108003223
lowerneck -15.99031482005909 -2.5042016650276655 -2.375503410868018
upperneck 21.98796166465436 -3.510790852897512 0.4144063223900855
head 9.699719943989864 -1.7538710155371349 -0.09842214706293145
lclavicle -6.798196818305873e-15 3.2418319845299304e-14
lhumerus -24.70040799362691 0.7481850828036194 80.78789426952304
lradius 21.820174553280935
lwrist 4.447512019497227
lhand -25.58630153894926 24.344931792483997
lfingers nan
lthumb 1.2470056223108026 54.47655834317301
rclavicle -7.879594605971383e-15 3.264942948319631e-14
rhumerus -34.424159154063744 -29.182644290715864 -71.81085151333198
rradius 19.025939310467823
rwrist 16.442191506540073
rhand -20.285370455359725 1.0
rfingers nan
rthumb 5.773503731041015 -7.717652757743767
76
root 0.23061805498791582 17.668587466692294 40.22656489841877 -2.442345010869324 -0.566838260668087 0.6692679060526303
lfemur 3.233483261571216 -5.537335253407301 -20.57541794686889
ltibia 11.814160120969657
lfoot -11.400512687746028 3.4592884427356303
ltoes -12.946323624058126
rfemur -28.096082516010384 4.6576814724810305 18.789408961408267
rtibia 27.33855429415322
rfoot -4.213601651790213 -4.860927617327152
rtoes 9.754736372041823
lowerback 1.0 -1.2243769094545367 -4.108036245198093
upperback 0.8424257470350782 -1.0117809198671315 1.1994913384506263
thorax -4.375684636370831 -0.45891298053939916 4.000085838932356
lowerneck -15.838390631626606 -2.5060640047689047 -2.487102804425306
upperneck 21.53702850240048 -3.5533509414659683 0.6668956876410941
head 9.5295384729005 -1.7471115743482417 -0.0027829849624228797
lclavicle -2.4709015061653528e-15 1.0140584955003931e-14
lhumerus -23.65448016226981 0.42449818881493995 80.34778274089302
lradius 23.77930291357114
lwrist 6.674080877368725
lhand -25.794211689527337 26.728196115809105
lfingers nan
lthumb 1.0931304167324045 56.94464438353892
rclavicle -3.598727600438133e-15 1.0401485005094645e-14
rhumerus -35.218290256807826 -32.815705775764314 -69.28121933654265
rradius 16.83941302558308
rwrist 20.89352956556578
rhand -19.46209516778397 1.0
rfingers nan
rthumb 6.585165081147087 -5.372322208943137
77
root 0.1820284045425551 17.61518738396167 41.23017198564772 -2.248944392704661 0.028721097575841847 1.1635238235095566
lfemur 6.392694869568121 -6.177968287781055 -21.34555973042089
ltibia 9.020080323066924
lfoot -11.217960312482138 2.2201622246153168
ltoes -16.87367725843996
rfemur -28.52223942542821 5.150777227753286 17.133871259322646
rtibia 22.879342413600376
rfoot -5.054654637859459 -3.5008192460932848
rtoes 2.8385423064888324
lowerback 1.0 -1.5409227601683613 -4.825159649104094
upperback 0.7760049267406522 -1.4543655273881986 1.1127535140378997
thorax -4.205267797873572 -0.6943840122688318 4.444752974560155
lowerneck -15.705248322914898 -2.4544775243835373 -2.635977145655043
upperneck 21.344611964207687 -3.3961946358172 0.6852100280664732
head 9.448327937362015 -1.7050825016783058 0.03992251428507537
lclavicle -6.7661121913127326e-15 1.6952566786768652e-14
lhumerus -23.041139198817525 0.19825184058961565 80.10279991644744
lradius 25.47601417841052
lwrist 7.767253228484064
lhand -32.131557713474336 19.393744245593656
lfingers nan
lthumb -5.064847292901078 49.54385741258899
rclavicle -8.287651160893097e-15 1.716265920044905e-14
rhumerus -36.36046612373714 -34.42632522548321 -67.36218243136959
rradius 15.671280412383883
rwrist 23.170111020233087
rhand -19.341708302071112 1.0
rfingers nan
rthumb 6.716888515080388 -4.8206408279698305
78
root 0.10912250922048916 17.569231319909093 41.05603596595358 -2.4059246181350935 0.043287602637311906 0.20884191322340895
lfemur 7.083861118106983 -7.66896011127861 -20.373029343894327
ltibia 11.696886350700314
lfoot -11.481297393003993 1.468247460828215
ltoes -17.486024390374144
rfemur -28.432197642743677 3.193082316608267 19.90270429896442
rtibia 24.227385967601343
rfoot -4.155430743856092 -1.6649296658286499
rtoes 7.875060355032964
lowerback 1.0 -1.6062802535696106 -3.94424725381894
upperback 0.936718299854868 -1.4076065489703875 1.5593089003642322
thorax -4.200153112972002 -0.7251682573602658 4.347286060497731
lowerneck -16.048250017762392 -2.3583319297650567 -2.5423834400706156
upperneck 21.35914110132131 -3.2324058486437606 0.6907374058341152
head 9.532063948425836 -1.6354042528910548 0.03685479140833034
lclavicle 2.8135415566115396e-16 1.3782577306321058e-14
lhumerus -21.956498317840506 -0.09892326488222114 79.98930145379148
lradius 25.863540887970885
lwrist 8.709351697542996
lhand -31.676249429032055 20.824087449947644
lfingers nan
lthumb -4.667738685808821 50.89560287492546
rclavicle -1.1472358031748696e-15 1.4078080201556336e-14
rhumerus -37.915869096400506 -38.49488773607088 -63.951333843380525
rradius 13.996743390771906
rwrist 27.118210955689037
rhand -18.218936175162526 1.0
rfingers nan
rthumb 7.82687339795258 -3.4261249615551446
